<?xml version="1.0" encoding="UTF-8" standalone="no"?>
<!DOCTYPE svg PUBLIC "-//W3C//DTD SVG 1.1//EN"
 "http://www.w3.org/Graphics/SVG/1.1/DTD/svg11.dtd">
<!-- Generated by graphviz version 2.47.3 (20210619.1520)
 -->
<!-- Title: dependencies Pages: 1 -->
<svg width="336pt" height="174pt"
 viewBox="0.00 0.00 336.00 173.80" xmlns="http://www.w3.org/2000/svg" xmlns:xlink="http://www.w3.org/1999/xlink">
<g id="graph0" class="graph" transform="scale(1 1) rotate(0) translate(4 169.8)">
<title>dependencies</title>
<polygon fill="white" stroke="transparent" points="-4,4 -4,-169.8 332,-169.8 332,4 -4,4"/>
<text text-anchor="middle" x="164" y="-8.2" font-family="sans-serif" font-size="14.00">dependencies</text>
<g id="clust1" class="cluster">
<title>cluster_UserModule</title>
<polygon fill="none" stroke="black" stroke-dasharray="1,5" points="8,-32.8 8,-157.8 320,-157.8 320,-32.8 8,-32.8"/>
</g>
<g id="clust6" class="cluster">
<title>cluster_UserModule_providers</title>
<polygon fill="none" stroke="black" points="16,-40.8 16,-92.8 312,-92.8 312,-40.8 16,-40.8"/>
</g>
<!-- UserService -->
<g id="node1" class="node">
<title>UserService</title>
<ellipse fill="#fdb462" stroke="black" cx="246" cy="-66.8" rx="58.44" ry="18"/>
<text text-anchor="middle" x="246" y="-62.6" font-family="Times,serif" font-size="14.00">UserService</text>
</g>
<!-- UserModule -->
<g id="node3" class="node">
<title>UserModule</title>
<polygon fill="#8dd3c7" stroke="black" points="213.98,-149.8 210.98,-153.8 189.98,-153.8 186.98,-149.8 128.02,-149.8 128.02,-113.8 213.98,-113.8 213.98,-149.8"/>
<text text-anchor="middle" x="171" y="-127.6" font-family="Times,serif" font-size="14.00">UserModule</text>
</g>
<!-- UserService&#45;&gt;UserModule -->
<g id="edge1" class="edge">
<title>UserService&#45;&gt;UserModule</title>
<path fill="none" stroke="black" d="M200.88,-78.42C200.88,-78.42 200.88,-103.65 200.88,-103.65"/>
<polygon fill="black" stroke="black" points="197.38,-103.65 200.88,-113.65 204.38,-103.65 197.38,-103.65"/>
</g>
<!-- jwtServiceClass -->
<g id="node2" class="node">
<title>jwtServiceClass</title>
<ellipse fill="#fdb462" stroke="black" cx="97" cy="-66.8" rx="73.01" ry="18"/>
<text text-anchor="middle" x="97" y="-62.6" font-family="Times,serif" font-size="14.00">jwtServiceClass</text>
</g>
<!-- jwtServiceClass&#45;&gt;UserModule -->
<g id="edge2" class="edge">
<title>jwtServiceClass&#45;&gt;UserModule</title>
<path fill="none" stroke="black" d="M149.13,-79.64C149.13,-79.64 149.13,-103.32 149.13,-103.32"/>
<polygon fill="black" stroke="black" points="145.63,-103.32 149.13,-113.32 152.63,-103.32 145.63,-103.32"/>
</g>
</g>
</svg>
