<?xml version="1.0" encoding="UTF-8" standalone="no"?>
<!DOCTYPE svg PUBLIC "-//W3C//DTD SVG 1.1//EN"
 "http://www.w3.org/Graphics/SVG/1.1/DTD/svg11.dtd">
<!-- Generated by graphviz version 2.47.3 (20210619.1520)
 -->
<!-- Title: dependencies Pages: 1 -->
<svg width="343pt" height="250pt"
 viewBox="0.00 0.00 343.00 249.80" xmlns="http://www.w3.org/2000/svg" xmlns:xlink="http://www.w3.org/1999/xlink">
<g id="graph0" class="graph" transform="scale(1 1) rotate(0) translate(4 245.8)">
<title>dependencies</title>
<polygon fill="white" stroke="transparent" points="-4,4 -4,-245.8 339,-245.8 339,4 -4,4"/>
<text text-anchor="middle" x="167.5" y="-8.2" font-family="sans-serif" font-size="14.00">dependencies</text>
<g id="clust1" class="cluster">
<title>cluster_AppModule</title>
<polygon fill="none" stroke="black" stroke-dasharray="1,5" points="8,-108.8 8,-233.8 264,-233.8 264,-108.8 8,-108.8"/>
</g>
<g id="clust3" class="cluster">
<title>cluster_AppModule_imports</title>
<polygon fill="none" stroke="black" points="154,-116.8 154,-168.8 256,-168.8 256,-116.8 154,-116.8"/>
</g>
<g id="clust6" class="cluster">
<title>cluster_AppModule_providers</title>
<polygon fill="none" stroke="black" points="16,-116.8 16,-168.8 146,-168.8 146,-116.8 16,-116.8"/>
</g>
<g id="clust7" class="cluster">
<title>cluster_UserModule</title>
<polygon fill="none" stroke="black" stroke-dasharray="1,5" points="15,-32.8 15,-100.8 327,-100.8 327,-32.8 15,-32.8"/>
</g>
<g id="clust12" class="cluster">
<title>cluster_UserModule_providers</title>
<polygon fill="none" stroke="black" points="23,-40.8 23,-92.8 319,-92.8 319,-40.8 23,-40.8"/>
</g>
<!-- UserModule -->
<g id="node1" class="node">
<title>UserModule</title>
<polygon fill="#8dd3c7" stroke="black" points="247.98,-160.8 244.98,-164.8 223.98,-164.8 220.98,-160.8 162.02,-160.8 162.02,-124.8 247.98,-124.8 247.98,-160.8"/>
<text text-anchor="middle" x="205" y="-138.6" font-family="Times,serif" font-size="14.00">UserModule</text>
</g>
<!-- AppModule -->
<g id="node2" class="node">
<title>AppModule</title>
<polygon fill="#8dd3c7" stroke="black" points="184.66,-225.8 181.66,-229.8 160.66,-229.8 157.66,-225.8 101.34,-225.8 101.34,-189.8 184.66,-189.8 184.66,-225.8"/>
<text text-anchor="middle" x="143" y="-203.6" font-family="Times,serif" font-size="14.00">AppModule</text>
</g>
<!-- UserModule&#45;&gt;AppModule -->
<g id="edge1" class="edge">
<title>UserModule&#45;&gt;AppModule</title>
<path fill="none" stroke="black" d="M173.42,-160.91C173.42,-160.91 173.42,-179.79 173.42,-179.79"/>
<polygon fill="black" stroke="black" points="169.92,-179.79 173.42,-189.79 176.92,-179.79 169.92,-179.79"/>
</g>
<!-- AppService -->
<g id="node3" class="node">
<title>AppService</title>
<ellipse fill="#fdb462" stroke="black" cx="81" cy="-142.8" rx="56.74" ry="18"/>
<text text-anchor="middle" x="81" y="-138.6" font-family="Times,serif" font-size="14.00">AppService</text>
</g>
<!-- AppService&#45;&gt;AppModule -->
<g id="edge2" class="edge">
<title>AppService&#45;&gt;AppModule</title>
<path fill="none" stroke="black" d="M119.4,-156.27C119.4,-156.27 119.4,-179.66 119.4,-179.66"/>
<polygon fill="black" stroke="black" points="115.9,-179.66 119.4,-189.66 122.9,-179.66 115.9,-179.66"/>
</g>
<!-- UserService -->
<g id="node4" class="node">
<title>UserService</title>
<ellipse fill="#fdb462" stroke="black" cx="253" cy="-66.8" rx="58.44" ry="18"/>
<text text-anchor="middle" x="253" y="-62.6" font-family="Times,serif" font-size="14.00">UserService</text>
</g>
<!-- UserService&#45;&gt;UserModule -->
<g id="edge3" class="edge">
<title>UserService&#45;&gt;UserModule</title>
<path fill="none" stroke="black" d="M221.38,-82.18C221.38,-82.18 221.38,-114.77 221.38,-114.77"/>
<polygon fill="black" stroke="black" points="217.88,-114.77 221.38,-124.77 224.88,-114.77 217.88,-114.77"/>
</g>
<!-- jwtServiceClass -->
<g id="node5" class="node">
<title>jwtServiceClass</title>
<ellipse fill="#fdb462" stroke="black" cx="104" cy="-66.8" rx="73.01" ry="18"/>
<text text-anchor="middle" x="104" y="-62.6" font-family="Times,serif" font-size="14.00">jwtServiceClass</text>
</g>
<!-- jwtServiceClass&#45;&gt;UserModule -->
<g id="edge4" class="edge">
<title>jwtServiceClass&#45;&gt;UserModule</title>
<path fill="none" stroke="black" d="M169.63,-74.93C169.63,-74.93 169.63,-114.68 169.63,-114.68"/>
<polygon fill="black" stroke="black" points="166.13,-114.68 169.63,-124.68 173.13,-114.68 166.13,-114.68"/>
</g>
</g>
</svg>
